<?xml version="1.0" standalone="no"?>
<!DOCTYPE svg PUBLIC "-//W3C//DTD SVG 20010904//EN"
 "http://www.w3.org/TR/2001/REC-SVG-20010904/DTD/svg10.dtd">
<svg version="1.0" xmlns="http://www.w3.org/2000/svg"
 width="180.000000pt" height="180.000000pt" viewBox="0 0 180.000000 180.000000"
 preserveAspectRatio="xMidYMid meet">

<g transform="translate(0.000000,180.000000) scale(0.100000,-0.100000)"
fill="#000000" stroke="none">
<path d="M0 1764 c0 -35 1 -36 22 -22 12 8 28 24 36 36 14 21 13 22 -22 22
-35 0 -36 -1 -36 -36z"/>
<path d="M190 1784 c0 -9 -13 -21 -30 -27 -38 -15 -41 -39 -3 -33 51 10 70
-25 83 -153 5 -46 14 -89 20 -95 15 -15 12 -42 -5 -56 -8 -7 -15 -28 -15 -46
0 -19 -13 -62 -29 -95 -16 -33 -26 -69 -24 -80 3 -10 -2 -35 -11 -54 -17 -34
-16 -37 4 -71 16 -25 20 -42 15 -62 -7 -30 -32 -62 -49 -62 -13 0 -66 -47 -66
-58 0 -5 11 -23 24 -41 40 -54 52 -90 34 -107 -8 -8 -24 -16 -37 -19 -13 -2
-30 -10 -38 -17 -9 -7 -21 -13 -27 -14 -6 0 -17 -2 -24 -2 -7 -1 -11 -6 -7
-12 3 -5 12 -7 19 -4 9 3 15 -4 18 -20 4 -22 2 -26 -18 -26 l-24 0 0 -245 c0
-167 3 -245 11 -245 25 0 47 22 53 54 9 48 64 105 110 113 47 7 46 -4 -4 -62
-29 -34 -40 -55 -40 -79 0 -38 20 -60 47 -52 20 7 63 68 63 91 0 8 5 15 10 15
6 0 13 8 16 17 31 94 54 124 67 89 3 -8 14 -15 24 -15 10 1 41 -3 68 -8 66
-11 109 -3 114 22 9 51 -45 193 -75 195 -13 0 -44 59 -44 82 0 7 -9 27 -20 45
-11 19 -15 35 -10 38 13 8 13 61 0 85 -7 12 -5 34 6 71 9 28 14 64 11 77 -8
41 2 52 44 52 90 0 145 62 79 90 -45 19 -26 30 39 23 37 -3 61 -1 65 6 13 20
-13 49 -56 63 -50 17 -58 38 -28 68 27 27 22 52 -10 60 -24 6 -26 10 -22 60 3
32 50 45 192 53 14 0 36 -1 49 -4 34 -6 37 16 7 45 -25 23 -25 24 -6 29 15 4
20 13 20 36 0 24 -5 32 -25 37 -18 4 -25 13 -25 30 0 22 2 22 33 12 17 -6 36
-14 40 -18 5 -4 17 -6 26 -3 13 3 18 14 17 38 -1 39 17 52 22 17 5 -31 24 -37
76 -22 34 9 47 19 59 46 20 42 14 60 -25 73 -48 17 -67 14 -61 -9 4 -16 0 -20
-21 -20 -16 0 -26 6 -26 15 0 11 -8 13 -32 8 -41 -8 -83 -40 -100 -76 -13 -27
-13 -27 -20 -5 -3 13 -6 37 -7 53 -1 17 -7 42 -15 57 -8 15 -12 36 -9 48 5 20
2 20 -246 20 -223 0 -251 -2 -251 -16z m406 -19 c18 -14 17 -16 -30 -61 -26
-26 -53 -60 -58 -76 -7 -20 -17 -28 -34 -28 -33 0 -39 21 -24 77 24 84 95 127
146 88z m-192 -750 c4 -11 -2 -15 -22 -15 -26 1 -26 1 -8 15 24 18 23 18 30 0z
m-252 -390 c-12 -22 -27 -2 -18 22 5 12 10 13 17 6 7 -7 8 -17 1 -28z m55 -75
c14 -29 9 -40 -21 -40 -32 0 -36 7 -24 41 12 34 27 33 45 -1z"/>
<path d="M832 1783 c5 -27 44 -29 44 -3 0 14 -7 20 -24 20 -17 0 -23 -5 -20
-17z"/>
<path d="M990 1791 c0 -5 6 -14 14 -20 18 -15 111 -4 127 15 10 12 -1 14 -65
14 -42 0 -76 -4 -76 -9z"/>
<path d="M1185 1780 c5 -14 -6 -32 -39 -67 -25 -26 -46 -53 -46 -59 0 -6 9
-23 20 -37 25 -32 25 -33 -2 -42 -23 -8 -23 -8 3 -12 16 -2 31 -14 38 -30 16
-36 0 -50 -32 -28 -20 13 -30 14 -46 5 -27 -14 -26 -26 3 -46 16 -10 26 -27
28 -47 2 -26 10 -36 43 -51 22 -11 41 -23 43 -27 2 -4 12 -5 22 -2 17 5 20 14
20 60 0 43 5 61 25 87 14 18 25 40 25 49 0 8 -11 24 -25 35 -31 24 -31 44 -3
90 l22 35 -22 15 c-16 11 -22 24 -22 53 0 37 -2 39 -31 39 -26 0 -29 -3 -24
-20z"/>
<path d="M1310 1773 c0 -17 10 -35 26 -48 30 -24 27 -59 -6 -68 -15 -4 -20
-14 -21 -44 0 -21 -2 -95 -3 -165 -4 -144 3 -166 45 -149 15 5 29 17 32 25 10
26 56 20 67 -8 5 -14 18 -30 29 -36 33 -17 69 -179 45 -203 -12 -12 -34 6 -34
29 0 26 -40 116 -70 154 l-19 25 -25 -24 c-14 -13 -28 -38 -32 -55 -3 -17 -10
-35 -14 -41 -3 -5 -15 -40 -24 -77 -14 -51 -15 -71 -7 -87 7 -11 11 -36 9 -55
-1 -27 5 -41 29 -66 37 -38 69 -36 107 5 30 33 47 16 40 -40 -6 -36 -3 -42 17
-52 l24 -10 -22 -7 c-15 -5 -23 -15 -23 -29 0 -43 -14 -47 -39 -11 -18 25 -31
34 -52 34 -36 0 -49 -23 -47 -86 3 -81 -50 -153 -66 -90 -3 14 -17 36 -31 50
-14 14 -25 32 -25 40 0 9 -8 20 -19 25 -10 6 -21 24 -24 41 -8 36 -24 39 -33
6 -3 -13 -17 -34 -30 -47 -26 -25 -31 -63 -13 -103 9 -19 8 -29 -5 -47 -21
-30 -21 -59 0 -59 11 0 14 -5 9 -17 -4 -10 -10 -27 -13 -38 -10 -38 -22 -46
-47 -29 -29 19 -51 10 -64 -26 -5 -16 -18 -33 -29 -39 -11 -6 -25 -24 -30 -40
-9 -25 -7 -34 9 -55 11 -14 36 -33 56 -42 29 -14 36 -15 43 -3 10 16 23 6 27
-21 4 -25 46 -87 77 -111 14 -11 27 -28 31 -38 3 -10 18 -24 34 -31 30 -12 81
-5 81 12 0 13 -44 48 -84 68 -36 18 -43 53 -11 58 56 8 63 13 68 42 8 36 -10
80 -32 80 -9 0 -27 -7 -39 -16 -21 -14 -23 -13 -45 12 l-24 28 -30 -22 c-30
-21 -31 -21 -48 -2 -13 15 -15 25 -8 47 9 25 16 29 74 38 52 8 66 14 75 34 7
13 20 28 28 33 18 10 22 63 6 73 -13 8 -13 52 0 60 5 3 25 3 45 -1 48 -9 76
-57 87 -148 4 -39 10 -89 14 -112 5 -36 2 -45 -25 -74 -17 -19 -37 -47 -45
-64 -13 -28 -13 -33 1 -49 9 -10 19 -37 22 -60 l6 -42 81 -3 82 -3 11 33 12
33 27 -33 c22 -26 34 -32 66 -32 l38 0 -31 35 c-37 42 -40 80 -12 142 17 37
24 42 58 45 54 4 50 29 -7 47 -25 8 -52 16 -60 19 -8 2 -33 5 -55 6 l-40 1 3
65 c2 36 6 67 7 69 2 2 15 -9 29 -24 29 -31 52 -28 62 10 3 14 10 25 14 25 10
0 -6 60 -19 73 -16 16 0 47 23 44 31 -3 33 42 3 100 -14 27 -31 60 -37 75 -7
15 -16 27 -19 26 -23 -2 -29 5 -27 35 4 46 4 45 29 52 12 4 31 17 42 28 19 19
20 28 12 90 -7 57 -6 72 8 93 21 32 11 103 -16 122 -14 10 -19 26 -19 62 0 64
14 98 44 110 13 5 27 18 31 29 3 10 18 24 33 29 20 7 30 21 40 52 12 40 11 44
-10 69 -13 14 -24 28 -25 30 -2 2 -14 -1 -27 -7 -19 -8 -25 -20 -28 -49 -2
-30 -7 -38 -23 -38 -18 0 -20 7 -21 84 -2 67 -5 86 -19 93 -11 7 -15 17 -11
32 8 31 -41 60 -77 47 -29 -11 -75 -5 -95 12 -8 6 -12 23 -10 39 4 27 3 28
-34 28 -35 0 -38 -2 -38 -27z m176 -135 c-4 -13 -10 -40 -13 -61 l-6 -38 -23
41 -24 42 23 19 c31 26 51 25 43 -3z m14 -230 c0 -38 -3 -49 -10 -38 -16 25
-11 90 7 90 2 0 3 -24 3 -52z"/>
<path d="M1580 1796 c0 -2 7 -17 15 -32 8 -16 12 -37 9 -46 -10 -33 24 -19 35
13 20 56 15 69 -24 69 -19 0 -35 -2 -35 -4z"/>
<path d="M1687 1773 c3 -16 11 -57 17 -93 8 -46 15 -65 26 -65 15 0 15 4 6 90
-2 17 -4 45 -4 63 -2 27 -6 32 -27 32 -23 0 -25 -3 -18 -27z"/>
<path d="M753 1772 c-10 -7 -10 -12 0 -26 10 -14 17 -15 40 -7 25 10 27 13 13
26 -16 17 -34 19 -53 7z"/>
<path d="M0 1628 c0 -5 5 -8 10 -8 13 0 13 -37 0 -45 -6 -4 -10 -100 -10 -255
l0 -250 28 12 c15 7 34 17 42 24 8 7 24 14 34 15 11 2 21 10 24 16 6 20 -27
27 -54 12 -21 -11 -27 -10 -41 3 -12 13 -15 34 -13 100 1 45 3 102 4 124 1 26
8 50 21 64 11 13 19 32 17 47 -4 28 14 54 32 47 19 -7 46 23 46 52 0 18 -7 25
-27 30 -16 3 -35 8 -43 11 -22 9 -70 9 -70 1z"/>
<path d="M975 1466 c-19 -14 -19 -15 -2 -33 21 -24 22 -52 2 -59 -19 -8 -20
-24 -1 -24 8 0 16 -7 20 -15 3 -10 -1 -15 -13 -15 -10 0 -24 7 -31 15 -7 8
-21 15 -32 15 -26 0 -36 -30 -13 -42 9 -6 25 -19 34 -29 9 -10 27 -31 41 -46
69 -76 90 -130 71 -184 -8 -24 -8 -36 0 -46 7 -7 14 -45 17 -83 4 -55 8 -70
21 -72 56 -5 106 18 127 57 22 42 17 60 -18 76 -26 11 -34 21 -36 47 -3 32 -3
32 42 32 l45 0 -1 68 c-1 37 2 80 7 95 13 46 -10 75 -64 83 -78 11 -127 44
-111 75 13 24 -16 85 -44 93 -31 9 -40 7 -61 -8z m99 -178 c17 -25 21 -48 7
-48 -15 0 -62 50 -56 60 10 17 33 11 49 -12z"/>
<path d="M100 1439 c0 -5 5 -7 10 -4 6 3 10 8 10 11 0 2 -4 4 -10 4 -5 0 -10
-5 -10 -11z"/>
<path d="M167 1384 c-15 -15 -7 -45 11 -42 9 2 17 12 17 22 0 20 -16 31 -28
20z"/>
<path d="M1680 1340 c0 -11 7 -20 15 -20 8 0 15 6 15 14 0 8 -7 16 -15 20 -10
4 -15 -1 -15 -14z"/>
<path d="M1727 1204 c-10 -10 -9 -56 1 -50 12 7 52 -22 52 -39 0 -16 -64 -55
-90 -55 -51 0 -71 -43 -27 -59 30 -11 43 -5 57 30 10 24 18 29 47 29 l34 0 -3
73 -3 72 -30 3 c-17 2 -34 0 -38 -4z"/>
<path d="M901 1081 c-11 -7 -5 -11 25 -17 21 -3 47 -11 58 -16 23 -12 43 4 23
20 -19 16 -89 25 -106 13z"/>
<path d="M0 970 l0 -60 27 6 c35 9 44 21 41 58 -2 23 -10 33 -35 43 l-33 13 0
-60z"/>
<path d="M642 1018 c-12 -16 -42 -119 -42 -145 0 -47 -21 -91 -49 -103 -50
-20 -64 -81 -37 -158 9 -25 12 -56 9 -78 -4 -27 -3 -35 5 -30 7 4 12 16 12 27
0 10 4 19 9 19 19 0 62 42 53 54 -19 25 -20 46 -2 69 23 29 60 124 60 154 0
12 12 31 26 42 34 27 45 98 20 136 -18 27 -47 33 -64 13z"/>
<path d="M1783 994 c-3 -8 -1 -20 6 -27 8 -8 11 -4 11 16 0 30 -7 35 -17 11z"/>
<path d="M847 993 c-21 -20 15 -53 58 -53 43 0 67 33 36 50 -22 11 -84 14 -94
3z"/>
<path d="M800 766 c0 -8 7 -41 15 -72 13 -51 13 -60 0 -81 -21 -32 -19 -60 5
-68 35 -11 50 12 50 75 0 44 -4 61 -20 75 -11 10 -20 27 -20 37 0 11 -7 26
-15 34 -13 14 -15 14 -15 0z"/>
<path d="M1766 754 c-10 -26 -7 -34 14 -34 15 0 20 7 20 25 0 28 -24 34 -34 9z"/>
<path d="M986 502 c-6 -10 19 -43 27 -35 13 12 7 43 -7 43 -8 0 -17 -3 -20 -8z"/>
<path d="M1780 280 c-12 -7 -12 -12 -3 -21 15 -15 26 -7 21 15 -2 11 -7 13
-18 6z"/>
<path d="M1740 111 c0 -16 38 -51 55 -51 3 0 5 16 5 35 0 32 -2 35 -30 35 -23
0 -30 -5 -30 -19z"/>
</g>
</svg>
